<?xml version="1.0" encoding="UTF-8"?>
<svg version="1.1" xmlns="http://www.w3.org/2000/svg" width="64" height="64">
<path d="M0 0 C8.34468007 4.97590182 13.53387008 11.86345977 16.109375 21.2578125 C17.10789012 32.35758522 16.45884702 41.9922991 9.359375 51.0703125 C3.70168013 57.1280464 -3.34488592 60.84888618 -11.625 61.59375 C-22.35447774 61.83515993 -31.19802606 60.58332943 -39.359375 52.9609375 C-46.75303791 44.73737365 -48.47252567 36.02335615 -48.203125 25.24609375 C-47.72879865 16.86039919 -44.11592977 9.8548755 -37.890625 4.2578125 C-27.15195714 -3.81766573 -12.32399863 -5.91386512 0 0 Z " fill="#046FE6" transform="translate(47.890625,2.7421875)"/>
<path d="M0 0 C8.3349883 4.97012265 13.55191546 11.86537261 16.109375 21.2578125 C16.32081214 23.93235504 16.44209688 26.46352465 16.421875 29.1328125 C16.42058594 29.83664063 16.41929688 30.54046875 16.41796875 31.265625 C16.31945311 36.58546977 15.4729597 40.5306431 13.109375 45.2578125 C12.449375 45.2578125 11.789375 45.2578125 11.109375 45.2578125 C11.21636719 44.53335938 11.32335938 43.80890625 11.43359375 43.0625 C12.46577183 35.21406022 12.46577183 35.21406022 9.109375 28.2578125 C5.58843197 24.99449944 2.80544284 23.96966518 -1.890625 23.7578125 C-6.56108548 23.95475963 -9.35148771 25.07258893 -12.890625 28.2578125 C-14.79875749 31.31605224 -15.16245656 33.67743721 -15.140625 37.2578125 C-15.14578125 38.1034375 -15.1509375 38.9490625 -15.15625 39.8203125 C-14.87593655 42.39260061 -14.1854437 44.0381233 -12.890625 46.2578125 C-13.880625 46.2578125 -14.870625 46.2578125 -15.890625 46.2578125 C-17.24211041 41.94995275 -17.890625 38.83823658 -17.890625 34.2578125 C-23.830625 34.2578125 -29.770625 34.2578125 -35.890625 34.2578125 C-35.890625 26.9978125 -35.890625 19.7378125 -35.890625 12.2578125 C-23.350625 12.2578125 -10.810625 12.2578125 2.109375 12.2578125 C2.109375 15.5578125 2.109375 18.8578125 2.109375 22.2578125 C3.429375 22.2578125 4.749375 22.2578125 6.109375 22.2578125 C5.779375 17.9678125 5.449375 13.6778125 5.109375 9.2578125 C3.82248779 9.2578125 2.53560059 9.2578125 1.2097168 9.2578125 C-12.82373047 9.2578125 -26.85717773 9.2578125 -40.890625 9.2578125 C-39.45830175 5.7379543 -37.80699539 4.18987626 -34.640625 2.1328125 C-33.89296875 1.63523437 -33.1453125 1.13765625 -32.375 0.625 C-22.92142087 -4.57744135 -9.7370139 -4.67245969 0 0 Z " fill="#026EE6" transform="translate(47.890625,2.7421875)"/>
<path d="M0 0 C3.88383075 1.97722293 6.99050561 4.08677409 9 8 C10.10922174 12.49707728 10.38931289 15.91402194 8.8125 20.3125 C6.26381195 24.09158918 4.38073649 26.5397545 0 28 C-4.99455908 28.52438572 -8.87956656 28.55003096 -13.4375 26.3125 C-16.79656012 23.28115306 -18.69355631 21.25860352 -19.31640625 16.66796875 C-19.58213652 10.95048191 -18.96847152 7.39749547 -15 3 C-10.63912272 -0.84783289 -5.53618134 -0.80735978 0 0 Z " fill="#0F72E6" transform="translate(51,26)"/>
<path d="M0 0 C0.75643295 0.00142502 1.51286591 0.00285004 2.29222107 0.00431824 C3.57849144 -0.00029671 3.57849144 -0.00029671 4.89074707 -0.00500488 C5.81785995 0.00218063 6.74497284 0.00936615 7.70018005 0.01676941 C8.64940842 0.01722763 9.59863678 0.01768585 10.57662964 0.01815796 C12.58486683 0.02118178 14.59310164 0.02907192 16.6013031 0.04142761 C19.68708029 0.05968377 22.77255763 0.06193734 25.85838318 0.06169128 C27.80565142 0.06660633 29.75291761 0.07243459 31.70018005 0.07926941 C33.09388573 0.08093864 33.09388573 0.08093864 34.51574707 0.0826416 C35.37010849 0.08902145 36.22446991 0.09540131 37.10472107 0.10197449 C37.86035843 0.10578629 38.61599579 0.10959808 39.39453125 0.11352539 C41.1337738 0.24723816 41.1337738 0.24723816 42.1337738 1.24723816 C42.20636326 3.43363269 42.21751163 5.62224205 42.1962738 7.80973816 C42.18725037 9.00727722 42.17822693 10.20481628 42.16893005 11.43864441 C42.15732849 12.36548035 42.14572693 13.29231628 42.1337738 14.24723816 C40.8137738 14.24723816 39.4937738 14.24723816 38.1337738 14.24723816 C38.1337738 10.94723816 38.1337738 7.64723816 38.1337738 4.24723816 C25.5937738 4.24723816 13.0537738 4.24723816 0.1337738 4.24723816 C0.1337738 11.50723816 0.1337738 18.76723816 0.1337738 26.24723816 C6.0737738 26.24723816 12.0137738 26.24723816 18.1337738 26.24723816 C18.88247172 29.30713399 19.63116964 32.36702983 20.37986755 35.42692566 C21.0124216 38.17208537 21.0124216 38.17208537 22.1337738 40.24723816 C16.5237738 40.24723816 10.9137738 40.24723816 5.1337738 40.24723816 C5.1337738 39.25723816 5.1337738 38.26723816 5.1337738 37.24723816 C7.4437738 37.24723816 9.7537738 37.24723816 12.1337738 37.24723816 C12.1337738 35.92723816 12.1337738 34.60723816 12.1337738 33.24723816 C11.14635193 33.27044128 10.15893005 33.29364441 9.1415863 33.31755066 C7.86025818 33.33559753 6.57893005 33.35364441 5.2587738 33.37223816 C3.98260193 33.39544128 2.70643005 33.41864441 1.3915863 33.44255066 C-1.8662262 33.24723816 -1.8662262 33.24723816 -3.8662262 31.24723816 C-4.12501526 28.38981628 -4.12501526 28.38981628 -4.1318512 24.77848816 C-4.13442932 23.48555847 -4.13700745 22.19262878 -4.1396637 20.86051941 C-4.13547424 20.18585632 -4.13128479 19.51119324 -4.12696838 18.81608582 C-4.1162669 16.75507659 -4.12686562 14.69493896 -4.1396637 12.63395691 C-4.13708557 11.34102722 -4.13450745 10.04809753 -4.1318512 8.71598816 C-4.12959534 7.52424988 -4.12733948 6.3325116 -4.12501526 5.10466003 C-3.83495487 1.90195547 -3.37956346 0.4477255 0 0 Z " fill="#F0F2FC" transform="translate(11.866226196289063,10.752761840820313)"/>
<path d="M0 0 C3.88383075 1.97722293 6.99050561 4.08677409 9 8 C10.10922174 12.49707728 10.38931289 15.91402194 8.8125 20.3125 C6.26381195 24.09158918 4.38073649 26.5397545 0 28 C-4.99455908 28.52438572 -8.87956656 28.55003096 -13.4375 26.3125 C-16.79656012 23.28115306 -18.69355631 21.25860352 -19.31640625 16.66796875 C-19.58213652 10.95048191 -18.96847152 7.39749547 -15 3 C-10.63912272 -0.84783289 -5.53618134 -0.80735978 0 0 Z M-15 7 C-16.84862688 10.69725375 -16.47587094 14.96461442 -16 19 C-14.20353146 21.93423195 -13.0558929 23.47205355 -10 25 C-5.20062265 25.51816286 -1.26590874 25.71207367 3 23.3125 C6.1805367 19.63500444 7.04978046 17.39385279 6.875 12.5 C5.92080906 8.68323625 4.71834365 6.8007177 2 4 C-3.81485005 1.09257498 -10.69653163 2.28006695 -15 7 Z " fill="#DDE4F9" transform="translate(51,26)"/>
<path d="M0 0 C-2 2 -2 2 -5.8125 2.8125 C-10.13094071 3.83920732 -12.30557652 5.35460352 -15 9 C-15.94867641 11.67715489 -16.47626148 14.19085704 -17 17 C-17.66 17 -18.32 17 -19 17 C-19.41813284 10.93707386 -19.13274522 7.80292012 -15 3 C-10.53657144 -0.93831932 -5.62668269 -0.29499113 0 0 Z " fill="#E7ECFA" transform="translate(51,26)"/>
<path d="M0 0 C3.7726764 0.53895377 5.68212991 1.99535358 8 5 C8.10446693 8.23847472 6.72556776 9.30961586 4.5625 11.75 C2 14 2 14 0 14 C0.54723683 10.62537285 1.0549 8.91765 3 6 C2.505 5.566875 2.01 5.13375 1.5 4.6875 C0 3 0 3 0 0 Z " fill="#F0F3FC" transform="translate(40,33)"/>
<path d="M0 0 C0.33 0 0.66 0 1 0 C1.09796875 0.68707031 1.1959375 1.37414063 1.296875 2.08203125 C1.52117188 3.43361328 1.52117188 3.43361328 1.75 4.8125 C1.88921875 5.70582031 2.0284375 6.59914063 2.171875 7.51953125 C3.19925322 10.59681977 4.17892596 11.45039595 7 13 C9.34852226 13.56689282 9.34852226 13.56689282 11.75 13.6875 C12.54921875 13.75324219 13.3484375 13.81898437 14.171875 13.88671875 C15.07679687 13.94279297 15.07679687 13.94279297 16 14 C16 14.33 16 14.66 16 15 C13.69 15 11.38 15 9 15 C9 15.66 9 16.32 9 17 C3.73941076 15.89894644 1.75934007 13.92581294 -1.1171875 9.65625 C-2 8 -2 8 -2 6 C-1.34 6 -0.68 6 0 6 C0 4.02 0 2.04 0 0 Z " fill="#D5DEF8" transform="translate(34,37)"/>
<path d="M0 0 C0.33 0.99 0.66 1.98 1 3 C-1.84759727 6.04398329 -3.69846555 7.88998401 -8.04296875 8.09765625 C-8.75066406 8.08605469 -9.45835938 8.07445312 -10.1875 8.0625 C-12.0746875 8.0315625 -12.0746875 8.0315625 -14 8 C-14 7.34 -14 6.68 -14 6 C-12.989375 5.938125 -11.97875 5.87625 -10.9375 5.8125 C-6.32616326 5.19138117 -3.58675372 2.85476316 0 0 Z " fill="#E5EAFA" transform="translate(57,46)"/>
<path d="M0 0 C0.66 0.33 1.32 0.66 2 1 C1.360625 1.86625 0.72125 2.7325 0.0625 3.625 C-1.97548296 6.9598812 -2.63433093 9.16047478 -3 13 C-3.66 13 -4.32 13 -5 13 C-5.61538462 5.73846154 -5.61538462 5.73846154 -2.5 2 C-1.675 1.34 -0.85 0.68 0 0 Z " fill="#F3F5FC" transform="translate(37,30)"/>
<path d="M0 0 C-0.185625 0.763125 -0.37125 1.52625 -0.5625 2.3125 C-1.22819173 5.08967375 -1.22819173 5.08967375 0 8 C-1.32 7.67 -2.64 7.34 -4 7 C-4.6875 5.1875 -4.6875 5.1875 -5 3 C-3.38441968 0.84589291 -2.74502455 0 0 0 Z " fill="#ECF0FB" transform="translate(52,41)"/>
<path d="M0 0 C-0.33 0.99 -0.66 1.98 -1 3 C-3.64 3 -6.28 3 -9 3 C-9 2.34 -9 1.68 -9 1 C-2.25 0 -2.25 0 0 0 Z " fill="#FAFBFE" transform="translate(52,51)"/>
</svg>
