<?xml version="1.0" encoding="UTF-8"?>
<svg version="1.1" xmlns="http://www.w3.org/2000/svg" width="64" height="64">
<path d="M0 0 C21.12 0 42.24 0 64 0 C64 21.12 64 42.24 64 64 C42.88 64 21.76 64 0 64 C0 42.88 0 21.76 0 0 Z " fill="#81E199" transform="translate(0,0)"/>
<path d="M0 0 C21.12 0 42.24 0 64 0 C64 21.12 64 42.24 64 64 C42.88 64 21.76 64 0 64 C0 42.88 0 21.76 0 0 Z M27 2 C25.39011809 2.1329878 23.77495575 2.20333763 22.16015625 2.24609375 C21.17982422 2.27896484 20.19949219 2.31183594 19.18945312 2.34570312 C17.10883172 2.4067832 15.02809603 2.46408969 12.94726562 2.51757812 C11.96564453 2.55173828 10.98402344 2.58589844 9.97265625 2.62109375 C9.06781494 2.6461499 8.16297363 2.67120605 7.23071289 2.69702148 C4.79819013 2.7981385 4.79819013 2.7981385 3 5 C2.69355589 7.37148548 2.69355589 7.37148548 2.74121094 10.15234375 C2.73490662 11.22685791 2.72860229 12.30137207 2.72210693 13.40844727 C2.7261554 14.57303467 2.73020386 15.73762207 2.734375 16.9375 C2.73246155 18.12851318 2.7305481 19.31952637 2.72857666 20.54663086 C2.7272137 23.06852428 2.73091784 25.59042469 2.73925781 28.11230469 C2.74995547 31.98388349 2.73936594 35.85499822 2.7265625 39.7265625 C2.72788407 42.17187603 2.73044642 44.61718927 2.734375 47.0625 C2.73032654 48.2270874 2.72627808 49.3916748 2.72210693 50.59155273 C2.72841125 51.66606689 2.73471558 52.74058105 2.74121094 53.84765625 C2.74280212 54.79648682 2.74439331 55.74531738 2.74603271 56.72290039 C2.78222957 59.19847697 2.78222957 59.19847697 5 61 C7.37148548 61.30644411 7.37148548 61.30644411 10.15234375 61.25878906 C11.22685791 61.26509338 12.30137207 61.27139771 13.40844727 61.27789307 C14.57303467 61.2738446 15.73762207 61.26979614 16.9375 61.265625 C18.12851318 61.26753845 19.31952637 61.2694519 20.54663086 61.27142334 C23.06852428 61.2727863 25.59042469 61.26908216 28.11230469 61.26074219 C31.98388349 61.25004453 35.85499822 61.26063406 39.7265625 61.2734375 C42.17187603 61.27211593 44.61718927 61.26955358 47.0625 61.265625 C48.8093811 61.27169769 48.8093811 61.27169769 50.59155273 61.27789307 C51.66606689 61.27158875 52.74058105 61.26528442 53.84765625 61.25878906 C54.79648682 61.25719788 55.74531738 61.25560669 56.72290039 61.25396729 C59.19847697 61.21777043 59.19847697 61.21777043 61 59 C61.30644411 56.62851452 61.30644411 56.62851452 61.25878906 53.84765625 C61.26509338 52.77314209 61.27139771 51.69862793 61.27789307 50.59155273 C61.2738446 49.42696533 61.26979614 48.26237793 61.265625 47.0625 C61.26753845 45.87148682 61.2694519 44.68047363 61.27142334 43.45336914 C61.2727863 40.93147572 61.26908216 38.40957531 61.26074219 35.88769531 C61.25004453 32.01611651 61.26063406 28.14500178 61.2734375 24.2734375 C61.27211593 21.82812397 61.26955358 19.38281073 61.265625 16.9375 C61.26967346 15.7729126 61.27372192 14.6083252 61.27789307 13.40844727 C61.27158875 12.33393311 61.26528442 11.25941895 61.25878906 10.15234375 C61.25719788 9.20351318 61.25560669 8.25468262 61.25396729 7.27709961 C61.21777043 4.80152303 61.21777043 4.80152303 59 3 C56.74080849 2.64588917 56.74080849 2.64588917 54.1328125 2.62109375 C52.68068359 2.56985352 52.68068359 2.56985352 51.19921875 2.51757812 C50.18472656 2.49115234 49.17023437 2.46472656 48.125 2.4375 C46.12748948 2.37739565 44.13008216 2.31373037 42.1328125 2.24609375 C41.24480957 2.22216553 40.35680664 2.1982373 39.44189453 2.17358398 C37.1656499 2.01177535 35.19673188 1.58562096 33 1 C29.70192538 0.59631163 29.70192538 0.59631163 27 2 Z " fill="#111E14" transform="translate(0,0)"/>
<path d="M0 0 C3 0.1875 3 0.1875 5 1.1875 C5 1.8475 5 2.5075 5 3.1875 C3.02 3.1875 1.04 3.1875 -1 3.1875 C-1.33 4.1775 -1.66 5.1675 -2 6.1875 C-1.236875 6.290625 -0.47375 6.39375 0.3125 6.5 C3.22117209 7.24407891 4.38010972 7.66767068 6 10.1875 C5.8125 12.8125 5.8125 12.8125 5 15.1875 C2.22899606 16.57300197 0.0665294 16.3752467 -3 16.1875 C-3.99 15.5275 -4.98 14.8675 -6 14.1875 C-6 13.5275 -6 12.8675 -6 12.1875 C-3.03 12.5175 -0.06 12.8475 3 13.1875 C2.67 12.1975 2.34 11.2075 2 10.1875 C1.01 9.73375 0.02 9.28 -1 8.8125 C-4 7.1875 -4 7.1875 -5 4.625 C-5 0.75934161 -3.7025216 0.2314076 0 0 Z " fill="#101C13" transform="translate(32,38.8125)"/>
<path d="M0 0 C3.9745504 0.69849772 7.26574098 2.62892769 10.75 4.5625 C11.65298828 5.0565332 11.65298828 5.0565332 12.57421875 5.56054688 C14.05170503 6.3696465 15.52616036 7.18427662 17 8 C17 8.99 17 9.98 17 11 C14.73354942 12.34130761 12.46239903 13.67316234 10.1875 15 C9.54490234 15.3815625 8.90230469 15.763125 8.24023438 16.15625 C3.33984375 19 3.33984375 19 0 19 C1.32291145 15.03126566 2.91149738 14.70094963 6.5625 12.8125 C7.57441406 12.28269531 8.58632813 11.75289062 9.62890625 11.20703125 C10.41136719 10.80871094 11.19382812 10.41039062 12 10 C8.68088408 7.4359082 5.22356197 5.30066312 1.609375 3.18359375 C1.07828125 2.79300781 0.5471875 2.40242187 0 2 C0 1.34 0 0.68 0 0 Z " fill="#0C140E" transform="translate(9,11)"/>
<path d="M0 0 C3.0625 0.125 3.0625 0.125 5.0625 1.125 C5.0625 2.115 5.0625 3.105 5.0625 4.125 C2.7525 3.795 0.4425 3.465 -1.9375 3.125 C-1.9375 3.785 -1.9375 4.445 -1.9375 5.125 C-0.98875 5.57875 -0.04 6.0325 0.9375 6.5 C4.0625 8.125 4.0625 8.125 6.0625 10.125 C5.69568342 13.05953261 5.19812754 13.98937246 3.0625 16.125 C-0.99011287 16.46990322 -2.48504176 16.42663882 -5.9375 14.125 C-5.9375 13.465 -5.9375 12.805 -5.9375 12.125 C-3.2975 12.455 -0.6575 12.785 2.0625 13.125 C2.3925 12.135 2.7225 11.145 3.0625 10.125 C2.11375 9.83625 1.165 9.5475 0.1875 9.25 C-2.9375 8.125 -2.9375 8.125 -4.9375 6.125 C-4.21240871 0.17925143 -4.21240871 0.17925143 0 0 Z " fill="#0B140E" transform="translate(14.9375,38.875)"/>
<path d="M0 0 C0.66 0 1.32 0 2 0 C2 2.31 2 4.62 2 7 C4.31 7 6.62 7 9 7 C9 4.69 9 2.38 9 0 C9.66 0 10.32 0 11 0 C11 5.28 11 10.56 11 16 C10.34 16 9.68 16 9 16 C9 13.69 9 11.38 9 9 C6.69 9 4.38 9 2 9 C2 11.31 2 13.62 2 16 C1.34 16 0.68 16 0 16 C0 10.72 0 5.44 0 0 Z " fill="#010201" transform="translate(44,39)"/>
<path d="M0 0 C3.66881155 0.70554068 6.70450534 2.27735506 10 4 C9.01 5.485 9.01 5.485 8 7 C6.66144944 6.21718695 5.32926356 5.42348123 4 4.625 C3.2575 4.18414063 2.515 3.74328125 1.75 3.2890625 C1.1725 2.86367187 0.595 2.43828125 0 2 C0 1.34 0 0.68 0 0 Z " fill="#142318" transform="translate(9,11)"/>
</svg>
